<svg xmlns="http://www.w3.org/2000/svg" width="79" height="79" viewBox="0 0 79 79">
    <g fill="none" fill-rule="evenodd">
        <g fill="#A5A5A5" fill-rule="nonzero">
            <g>
                <g>
                    <path d="M16.5 34c4.688 0 8.5-3.812 8.5-8.5 0-4.688-3.812-8.5-8.5-8.5-4.688 0-8.5 3.812-8.5 8.5 0 4.688 3.812 8.5 8.5 8.5zm0-14.167c3.125 0 5.667 2.542 5.667 5.667s-2.542 5.667-5.667 5.667-5.667-2.542-5.667-5.667 2.542-5.667 5.667-5.667zM62.5 34c4.688 0 8.5-3.812 8.5-8.5 0-4.688-3.812-8.5-8.5-8.5-4.688 0-8.5 3.812-8.5 8.5 0 4.688 3.812 8.5 8.5 8.5zm0-14.167c3.125 0 5.667 2.542 5.667 5.667s-2.542 5.667-5.667 5.667-5.667-2.542-5.667-5.667 2.542-5.667 5.667-5.667zM76.179 37v18.2c0 2.316-1.9 4.2-4.233 4.2V44c0-3.86-3.164-7-7.053-7h-7.054c-.778 0-1.41.627-1.41 1.4v8.4H45.143c-.779 0-1.41.627-1.41 1.4v4.2h-8.465v-4.2c0-.773-.632-1.4-1.41-1.4H22.57V38.4c0-.773-.632-1.4-1.41-1.4h-7.054c-3.89 0-7.053 3.14-7.053 7v15.4c-2.334 0-4.233-1.884-4.233-4.2V37H0v18.2c0 2.863 1.745 5.323 4.232 6.406V79h2.822V62.2H21.16v15.4c0 .773.632 1.4 1.41 1.4h7.054V55.2h19.75V79H56.429c.778 0 1.41-.627 1.41-1.4V62.2h14.107V79h2.822V61.606C77.255 60.523 79 58.063 79 55.2V37h-2.821zM28.214 52.4H16.93V44h-2.822v9.8c0 .773.632 1.4 1.41 1.4h9.876c.777 0 1.41.629 1.41 1.4v19.6h-2.82V60.8c0-.773-.633-1.4-1.412-1.4H9.875V44c0-2.316 1.899-4.2 4.232-4.2h5.643V48.2c0 .773.632 1.4 1.41 1.4h11.286v2.8h-4.232zm28.215 7c-.78 0-1.411.627-1.411 1.4v15.4h-2.822V56.6c0-.771.634-1.4 1.411-1.4h9.875c.779 0 1.41-.627 1.41-1.4V44h-2.82v8.4H46.553v-2.8h11.285c.779 0 1.411-.627 1.411-1.4V39.8h5.643c2.333 0 4.232 1.884 4.232 4.2v15.4H56.429zM27.167 14.286v4.285c0 .616.382 1.16.95 1.356.144.049.293.073.439.073.429 0 .843-.206 1.11-.571l3.75-5.143h10.417C46.131 14.286 48 12.363 48 10V4.286C48 1.923 46.13 0 43.833 0H27.167C24.869 0 23 1.923 23 4.286V10c0 2.363 1.87 4.286 4.167 4.286zm-1.39-10c0-.787.624-1.429 1.39-1.429h16.666c.766 0 1.39.642 1.39 1.429V10c0 .787-.624 1.429-1.39 1.429h-11.11c-.438 0-.85.211-1.112.571l-1.667 2.286v-1.429c0-.788-.622-1.428-1.388-1.428h-1.39c-.765 0-1.388-.642-1.388-1.429V4.286z" transform="translate(-215 -2705) translate(185 2677) translate(30 28)"/>
                    <path d="M28 6H42V9H28zM38 35L46 35 46 38 38 38z" transform="translate(-215 -2705) translate(185 2677) translate(30 28)"/>
                    <path d="M36.312 30C33.935 30 32 31.884 32 34.2v5.6c0 2.316 1.935 4.2 4.312 4.2h11.5c2.378 0 4.313-1.884 4.313-4.2v-.976l2.633-3.847c.295-.43.322-.981.072-1.436-.25-.457-.737-.741-1.268-.741H51.88c-.594-1.63-2.192-2.8-4.067-2.8h-11.5zm12.938 4.2c0 .773.644 1.4 1.437 1.4h.188l-1.384 2.023c-.157.23-.241.501-.241.777v1.4c0 .771-.646 1.4-1.438 1.4h-11.5c-.792 0-1.437-.629-1.437-1.4v-5.6c0-.771.645-1.4 1.437-1.4h11.5c.792 0 1.438.629 1.438 1.4zM32 23L35 23 35 26 32 26zM38 23L41 23 41 26 38 26zM44 23L47 23 47 26 44 26z" transform="translate(-215 -2705) translate(185 2677) translate(30 28)"/>
                </g>
            </g>
        </g>
    </g>
</svg>
