<svg xmlns="http://www.w3.org/2000/svg" width="82" height="82" viewBox="0 0 82 82">
    <g fill="none" fill-rule="evenodd">
        <g fill="#A4A4A4" fill-rule="nonzero">
            <g>
                <g>
                    <g>
                        <path d="M58 6c-3.866 0-7 3.134-7 7 .005 3.864 3.136 6.995 7 7 3.866 0 7-3.134 7-7s-3.134-7-7-7zm0 11.2c-2.32 0-4.2-1.88-4.2-4.2 0-2.32 1.88-4.2 4.2-4.2 2.32 0 4.2 1.88 4.2 4.2 0 2.32-1.88 4.2-4.2 4.2z" transform="translate(-955 -2704) translate(185 2677) translate(740) translate(30 27)"/>
                        <path d="M68.65 9.45h-2.138l-.068-.166 1.512-1.512c.527-.527.527-1.382 0-1.909l-3.82-3.818c-.535-.506-1.372-.506-1.908 0l-1.512 1.512-.166-.069V1.35C60.55.604 59.946 0 59.2 0h-5.4c-.746 0-1.35.604-1.35 1.35v2.138l-.166.07-1.512-1.513c-.527-.527-1.382-.527-1.909 0l-3.818 3.818c-.527.527-.527 1.382 0 1.909l1.512 1.512-.069.166H44.35c-.746 0-1.35.604-1.35 1.35v5.4c0 .746.604 1.35 1.35 1.35h2.138l.068.166-1.512 1.51c-.527.528-.527 1.382 0 1.91l3.82 3.819c.535.506 1.372.506 1.908 0l1.512-1.512.166.069v2.138c0 .746.604 1.35 1.35 1.35h5.4c.746 0 1.35-.604 1.35-1.35v-2.138l.166-.07 1.512 1.513c.527.527 1.382.527 1.909 0l3.82-3.82c.526-.527.526-1.381 0-1.908l-1.513-1.511.068-.166h2.138c.746 0 1.35-.604 1.35-1.35v-5.4c0-.746-.604-1.35-1.35-1.35zm-1.35 5.401h-1.747c-.597 0-1.123.393-1.293.966-.157.533-.37 1.048-.633 1.537-.285.526-.19 1.176.232 1.599l1.232 1.23-1.908 1.908-1.233-1.232c-.423-.423-1.073-.517-1.598-.232-.49.263-1.005.475-1.538.633-.572.17-.964.696-.964 1.293V24.3h-2.7v-1.747c0-.597-.392-1.123-.964-1.293-.533-.158-1.048-.37-1.538-.633-.525-.285-1.175-.19-1.598.232l-1.232 1.232-1.91-1.91 1.233-1.231c.423-.423.517-1.073.232-1.598-.264-.49-.476-1.005-.633-1.538-.17-.572-.696-.964-1.293-.964H45.7v-2.7h1.747c.597 0 1.123-.393 1.293-.965.157-.534.37-1.049.633-1.538.285-.525.19-1.176-.232-1.598L47.91 6.816l1.909-1.907L51.05 6.14c.423.423 1.073.517 1.598.232.49-.263 1.005-.475 1.538-.633.572-.17.964-.696.964-1.293V2.7h2.7v1.747c0 .597.392 1.123.964 1.293.533.158 1.048.37 1.538.633.525.285 1.175.19 1.598-.232l1.232-1.232 1.91 1.909-1.233 1.232c-.423.423-.517 1.073-.232 1.598.264.49.476 1.005.633 1.538.17.572.696.965 1.293.965H67.3v2.7z" transform="translate(-955 -2704) translate(185 2677) translate(740) translate(30 27)"/>
                        <path d="M81.993 80.498l-2.722-25.952c-.056-.532-.417-.983-.923-1.152l-11.32-3.792v-5.066c.118-.093.24-.176.358-.273 4.945-4.211 7.8-10.388 7.808-16.897 0-.754-.61-1.366-1.36-1.366H69.75v2.732h2.673c-.367 5.21-2.811 10.052-6.78 13.432-4.716 3.945-11.569 3.945-16.286 0-3.912-3.422-6.338-8.242-6.762-13.432h2.655V26h-4.084c-.364 0-.714.148-.969.41-.256.26-.397.611-.392.976.058 6.493 2.904 12.645 7.809 16.88.115.097.24.18.358.273v5.063l-11.32 3.786c-.506.17-.866.62-.922 1.153l-2.722 25.951c-.079.75.464 1.422 1.212 1.5.047.006.094.008.14.008H80.64C81.39 82 82 81.388 82 80.634c0-.045-.002-.091-.007-.136zm-34.021-1.23h-12.1L38.345 55.7l9.628-3.219v26.787zm2.722-23.741l3.257 1.639-3.257 1.085v-2.724zm0 23.741V61.131l4.824-1.613-3.415 12.566c-.088.324-.054.67.095.97l3.1 6.214h-4.604zm4.172-6.972l2.634-9.691 2.632 9.697L57.5 77.58l-2.634-5.284zm9.44 6.972h-4.604L62.8 73.05c.15-.3.183-.646.095-.97L59.48 59.514l4.825 1.617v18.137zm0-21.017l-3.258-1.093 3.257-1.631v2.724zm0-5.778L57.5 55.888l-6.806-3.415v-6.217c4.289 2.13 9.323 2.13 13.611 0v6.217zm2.722 26.795V52.481l9.627 3.22 2.472 23.567h-12.1zM13 29c-3.866 0-7 3.134-7 7 .005 3.864 3.136 6.995 7 7 3.866 0 7-3.134 7-7s-3.134-7-7-7zm0 11.2c-2.32 0-4.2-1.88-4.2-4.2 0-2.32 1.88-4.2 4.2-4.2 2.32 0 4.2 1.88 4.2 4.2 0 2.32-1.88 4.2-4.2 4.2z" transform="translate(-955 -2704) translate(185 2677) translate(740) translate(30 27)"/>
                        <path d="M25.65 31.45h-2.138l-.068-.166 1.512-1.512c.527-.527.527-1.382 0-1.909l-3.82-3.818c-.535-.506-1.372-.506-1.908 0l-1.512 1.512-.166-.069V23.35c0-.746-.604-1.35-1.35-1.35h-5.4c-.746 0-1.35.604-1.35 1.35v2.138l-.166.07-1.512-1.513c-.527-.527-1.382-.527-1.909 0l-3.818 3.818c-.527.527-.527 1.382 0 1.909l1.512 1.512-.069.166H1.35c-.746 0-1.35.604-1.35 1.35v5.4c0 .746.604 1.35 1.35 1.35h2.138l.068.166-1.512 1.51c-.527.528-.527 1.382 0 1.91l3.82 3.819c.535.506 1.372.506 1.908 0l1.512-1.512.166.069v2.138c0 .746.604 1.35 1.35 1.35h5.4c.746 0 1.35-.604 1.35-1.35v-2.138l.166-.07 1.512 1.513c.527.527 1.382.527 1.909 0l3.82-3.82c.526-.527.526-1.381 0-1.908l-1.513-1.51.068-.167h2.138c.746 0 1.35-.604 1.35-1.35v-5.4c0-.746-.604-1.35-1.35-1.35zm-1.35 5.401h-1.747c-.597 0-1.123.393-1.293.966-.157.533-.37 1.048-.633 1.537-.285.526-.19 1.176.232 1.599l1.232 1.23-1.909 1.908-1.232-1.232c-.423-.423-1.073-.517-1.598-.232-.49.263-1.005.475-1.538.633-.572.17-.964.696-.964 1.293V46.3h-2.7v-1.747c0-.597-.392-1.123-.964-1.293-.533-.158-1.048-.37-1.538-.633-.525-.285-1.175-.19-1.598.232L6.817 44.09l-1.908-1.91L6.14 40.95c.423-.423.517-1.073.232-1.598-.264-.49-.476-1.005-.633-1.538-.17-.572-.696-.964-1.293-.964H2.7v-2.7h1.747c.597 0 1.123-.393 1.293-.965.157-.534.37-1.049.633-1.538.285-.525.19-1.176-.232-1.598L4.91 28.816l1.909-1.907L8.05 28.14c.423.423 1.073.517 1.598.232.49-.263 1.005-.475 1.538-.633.572-.17.964-.696.964-1.293V24.7h2.7v1.747c0 .597.392 1.123.964 1.293.533.158 1.048.37 1.538.633.525.285 1.175.19 1.598-.232l1.233-1.232 1.91 1.909-1.233 1.232c-.423.423-.517 1.073-.232 1.598.264.49.476 1.005.633 1.538.17.572.696.965 1.293.965H24.3v2.7zM43.533 43c-3.237 2.215-7.068 3.397-10.99 3.391-1.65 0-3.293-.207-4.892-.618L27 48.301c1.811.465 3.674.7 5.544.699 4.443.008 8.786-1.33 12.456-3.839L43.533 43zM10.522 16.708c-.19.47-.364.947-.522 1.43l2.615.862C16.189 8.13 27.873 2.225 38.712 5.81c.423.14.841.293 1.254.46L41 3.71c-11.995-4.85-25.64.968-30.478 12.998zM15.309 51L14 53.476c.593.534 1.216 1.053 1.849 1.524L17 52.395c-.576-.438-1.151-.903-1.691-1.395zM30.248 56L30 58.87c.995.087 2.005.13 3 .13v-2.882c-.914 0-1.84-.039-2.752-.118zM24.65 55L24 57.434c.841.226 1.705.416 2.567.566L27 55.517c-.79-.138-1.58-.312-2.35-.517zM19.97 53L19 55.08c.718.336 1.463.644 2.216.92L22 53.838c-.69-.25-1.371-.532-2.03-.838z" transform="translate(-955 -2704) translate(185 2677) translate(740) translate(30 27)"/>
                        <path d="M22.104 14c-.761.687-1.465 1.435-2.104 2.236L22.22 18c.54-.678 1.136-1.31 1.78-1.89L22.104 14zM35.281 10L35 12.617c.775.074 1.543.202 2.297.383L38 10.452c-.893-.213-1.802-.365-2.719-.452zM32.832 10c-.954.06-1.901.2-2.832.419L30.604 13c.788-.185 1.59-.304 2.396-.355L32.832 10zM27.85 11c-.99.417-1.943.916-2.85 1.491L26.591 15c.767-.487 1.572-.908 2.409-1.261L27.85 11zM19.011 18c-.398.719-.737 1.469-1.011 2.243l2.145.757c.232-.655.518-1.29.855-1.897L19.011 18z" transform="translate(-955 -2704) translate(185 2677) translate(740) translate(30 27)"/>
                    </g>
                </g>
            </g>
        </g>
    </g>
</svg>
